<?xml version="1.0" encoding="utf-8"?>
<svg version="1.1" id="Layer_1" xmlns="http://www.w3.org/2000/svg" xmlns:xlink="http://www.w3.org/1999/xlink" x="0px" y="0px"
	 viewBox="0 0 64 64" enable-background="new 0 0 64 64" xml:space="preserve">
  <g>
    <polygon
      fill="#DD0031"
      points="61.875306142,10.756969624 32.1575236,0.159436 2.439741058,10.756969624 6.972421102,50.050836766 32.1575236,64.0 57.342626098,50.050836766"
    />
    <polygon
      fill="#C3002F"
      points="57.342626098,50.050836766 61.875306142,10.756969624 32.1575236,0.159436 32.1575236,7.245738604 32.1575236,7.213818322 32.1575236,39.549063988 32.1575236,64.0"
    />
    <path
      fill="#FFFFFF"
      d="M32.157524 7.2510052C32.157524 7.2510052 13.579919 48.906973 13.579919 48.906973C13.579919 48.906973 13.579919 48.906973 13.579919 48.906973C13.579919 48.906973 20.506621 48.906973 20.506621 48.906973C20.506621 48.906973 20.506621 48.906973 20.506621 48.906973C20.506621 48.906973 24.241294 39.586251 24.241294 39.586251C24.241294 39.586251 40.009913 39.586251 40.009913 39.586251C40.009913 39.586251 43.744586 48.906973 43.744586 48.906973C43.744586 48.906973 43.744586 48.906973 43.744586 48.906973C43.744586 48.906973 50.671287 48.906973 50.671287 48.906973C50.671287 48.906973 50.671287 48.906973 50.671287 48.906973C50.671287 48.906973 32.157524 7.2510052 32.157524 7.2510052M37.583972 33.8406C37.583972 33.8406 26.731076 33.8406 26.731076 33.8406C26.731076 33.8406 32.157524 20.785205 32.157524 20.785205C32.157524 20.785205 37.583972 33.8406 37.583972 33.8406"
    />
  </g>
</svg>